<svg width="251" height="213" fill="none" xmlns="http://www.w3.org/2000/svg"><path fill-rule="evenodd" clip-rule="evenodd" d="M101.142 177.964V128.14l-.256.882-49.73-14.394-.666-.193v-32.3L36.621 67.903l-4.342-.054c-.631 5.098-5.006 9.014-10.258 8.949-5.639-.07-10.153-4.702-10.083-10.346.07-5.644 4.698-10.163 10.336-10.093 5.404.067 9.775 4.325 10.068 9.647l4.684.058.382.005.267.273 12.815 13.15V51.296a2.667 2.667 0 01.822-5.203 2.667 2.667 0 011.021 5.13v61.827l31.862 9.222-13.237-16.238-.207-.255V25.483a2.667 2.667 0 01.822-5.203 2.667 2.667 0 011.021 5.13v79.712l14.528 17.822-.158.129 14.178 4.103V0h1.843v126.261l13.25-12.678V51.381a2.667 2.667 0 01.922-5.168 2.667 2.667 0 01.922 5.168v62.989l-.284.272-14.81 14.169v32.534l29.01-32.171v-45.73a2.667 2.667 0 01.7-5.239 2.664 2.664 0 012.663 2.666c0 1.063-.621 1.98-1.52 2.409v46.603l-.237.263-30.616 33.953v12.942h94.902l.27.268 32.136 31.948h97.949v1.844h-98.709l-.27-.268-32.136-31.948h-95.985v-.922zM22.378 65.882l8.115.1c-.301-4.304-3.858-7.725-8.241-7.78-4.62-.057-8.413 3.645-8.47 8.273-.058 4.627 3.643 8.422 8.262 8.48 4.23.052 7.77-3.05 8.378-7.13l-8.067-.1.023-1.843zM263.241.667V152.01c5.207.466 9.289 4.845 9.289 10.179 0 5.644-4.572 10.22-10.211 10.22-5.638 0-10.21-4.576-10.21-10.22 0-5.334 4.082-9.713 9.289-10.179V53.305l-13.25 13.068v63.542a2.667 2.667 0 01-.922 5.169 2.668 2.668 0 01-.922-5.169V65.601l.275-.27 14.819-14.616V19.557l-30.563 30.592v62.437a2.666 2.666 0 01-.922 5.168 2.665 2.665 0 01-2.663-2.666 2.67 2.67 0 011.741-2.503v-43.26L216.408 81.92v4.347c5.1.57 9.066 4.9 9.066 10.157 0 5.644-4.571 10.22-10.21 10.22-5.639 0-10.21-4.576-10.21-10.22 0-5.409 4.197-9.837 9.51-10.197v-5.07l.27-.27 14.157-14.172V49.386l.27-.27 32.137-32.168V.667h1.843zm-48.677 87.41a8.373 8.373 0 00-7.667 8.348c0 4.628 3.748 8.377 8.367 8.377 4.619 0 8.366-3.749 8.366-8.377 0-4.24-3.144-7.74-7.222-8.299v8.077h-1.844v-8.126zm46.834 71.224v-5.438a8.375 8.375 0 00-7.445 8.327c0 4.628 3.747 8.376 8.366 8.376 4.62 0 8.367-3.748 8.367-8.376a8.375 8.375 0 00-7.445-8.327v5.438h-1.843zm29.333-78.428c0-1.149.725-2.127 1.741-2.503V.667h1.844V78.37a2.667 2.667 0 01-.922 5.169 2.664 2.664 0 01-2.663-2.666zm22.674-.222V.667h-1.844v79.736l-18.964 32.667-.125.215v38.726c-5.207.466-9.288 4.845-9.288 10.179 0 5.644 4.571 10.22 10.21 10.22 5.639 0 10.21-4.576 10.21-10.22 0-5.334-4.081-9.713-9.288-10.179v-38.23l18.964-32.668.125-.214v-.248zm-20.933 73.212v5.825a2.667 2.667 0 00.922 5.168 2.665 2.665 0 00.922-5.168v-5.825a8.375 8.375 0 017.445 8.327c0 4.628-3.748 8.376-8.367 8.376-4.619 0-8.366-3.748-8.366-8.376a8.375 8.375 0 017.444-8.327zm-143.831-28.566v37.37h48.486l32.136 31.947.27.268h98.709v-1.843h-97.949l-32.136-31.948-.27-.268h-47.402v-35.606a10.219 10.219 0 008.845-10.129c0-5.645-4.571-10.22-10.21-10.22-5.639 0-10.211 4.575-10.211 10.22 0 5.484 4.315 9.959 9.732 10.209zm1.844-1.944v-8.488h-1.844v8.586c-4.396-.248-7.888-3.896-7.888-8.363 0-4.628 3.748-8.377 8.367-8.377 4.619 0 8.366 3.749 8.366 8.377a8.375 8.375 0 01-7.001 8.265zM50.409 176.93v26.331h66.993l31.51 31.469.27.27h179.06v-1.844H149.945l-31.51-31.469-.27-.27H52.253V176l.122-.421-.122-.035v-14.86a10.219 10.219 0 008.88-10.007c.07-5.644-4.444-10.276-10.082-10.347-5.639-.07-10.266 4.449-10.337 10.093-.068 5.514 4.239 10.062 9.695 10.334v14.253l-26.408-7.643v-32.13a10.218 10.218 0 009.278-10.052c.07-5.644-4.444-10.276-10.082-10.346-5.639-.07-10.267 4.448-10.337 10.092-.066 5.38 4.031 9.84 9.297 10.307v31.595L3.31 161.378V97.66a2.667 2.667 0 00-.645-5.253 2.666 2.666 0 00-1.198 5.048v65.309l.665.192L50.41 176.93zm-18.973-51.767A8.375 8.375 0 0124 133.384v-7.918h-1.844v7.919a8.374 8.374 0 01-7.453-8.431c.057-4.627 3.851-8.329 8.47-8.271 4.618.057 8.32 3.852 8.262 8.48zm18.973 33.748c-4.425-.27-7.907-3.976-7.851-8.465.057-4.628 3.851-8.33 8.47-8.272 4.619.057 8.32 3.852 8.262 8.48a8.376 8.376 0 01-7.037 8.167v-6.328a2.667 2.667 0 00-1.044-5.12 2.668 2.668 0 00-.8 5.21v6.328zM150.707.445V15.4l15.499 15.95.261.269v95.63a2.667 2.667 0 01-.922 5.168 2.665 2.665 0 01-.922-5.168V32.368l-15.499-15.95-.26-.269V.445h1.843zm-16.203 32.278V.222h-1.844v33.264l.27.27 15.268 15.282v14.224a2.667 2.667 0 00.922 5.169 2.667 2.667 0 00.921-5.168V48.274l-.269-.27-15.268-15.282z" fill="url(#paint0_linear_2_599)"/><defs><linearGradient id="paint0_linear_2_599" x1="540.5" y1="-38.5" x2="-75.807" y2="227.447" gradientUnits="userSpaceOnUse"><stop offset=".443" stop-color="#8A92A6" stop-opacity=".48"/><stop offset=".599" stop-color="#4C7EF2"/><stop offset=".89" stop-color="#ADADAD" stop-opacity=".03"/></linearGradient></defs></svg>