<svg width="575" height="435" fill="none" xmlns="http://www.w3.org/2000/svg"><path stroke="#5452F6" stroke-width="1.667" d="M181.335 169.602l80.832-.017"/><path d="M253.832 162.002l8.752 7.915-8.749 7.503" stroke="#5452F6" stroke-width="1.667" stroke-linecap="round" stroke-linejoin="round"/><circle cx="177.585" cy="170.02" r="4.584" stroke="#5452F6" stroke-width="1.667"/><path d="M428.335 171.601l46.829-.01c18.411-.004 33.333-14.932 33.329-33.343l-.008-42.58" stroke="#5452F6" stroke-width="1.667" stroke-linecap="round" stroke-linejoin="round"/><path d="M507.849 94.702l-6.038 6.658a.834.834 0 00.618 1.394l11.746-.003a.833.833 0 00.632-1.376l-5.708-6.656a.833.833 0 00-1.25-.017z" fill="#5452F6"/><circle cx="424.585" cy="172.018" r="4.584" transform="rotate(-90.012 424.585 172.018)" fill="#5452F6"/><path stroke="#5452F6" stroke-width="1.667" stroke-dasharray="4.17 6.67" d="M337.335 38.606l98.832-.021"/><path d="M427.832 30.002l8.752 7.915-8.749 7.503" stroke="#5452F6" stroke-width="1.667" stroke-linecap="round" stroke-linejoin="round"/><circle cx="333.585" cy="39.023" r="4.584" stroke="#5452F6" stroke-width="1.667"/><path d="M236.085 341.023l-.005-26.932c-.002-9.205 7.459-16.669 16.664-16.671l181.83-.037c9.205-.002 16.669 7.459 16.671 16.664l.006 26.932m-108.509-43.973l-.009-45.838" stroke="#5452F6" stroke-width="1.667"/><path d="M459.188 332.643l-7.713 8.336-7.31-8.333m-200.142.041l-7.713 8.336-7.31-8.333" stroke="#5452F6" stroke-width="1.667" stroke-linecap="round" stroke-linejoin="round"/><circle cx="342.315" cy="246.585" r="4.584" stroke="#5452F6" stroke-width="1.667"/><g filter="url(#filter0_b_2_324)"><path fill-rule="evenodd" clip-rule="evenodd" d="M476 0c-9.389 0-17 7.611-17 17v44c0 9.389 7.611 17 17 17h121c9.389 0 17-7.611 17-17V17c0-9.389-7.611-17-17-17H476zM17 130c-9.389 0-17 7.611-17 17v44c0 9.389 7.611 17 17 17h121c9.389 0 17-7.611 17-17v-44c0-9.389-7.611-17-17-17H17zm219 227c-21.539 0-39 17.461-39 39s17.461 39 39 39 39-17.461 39-39-17.461-39-39-39zm177 39c0-21.539 17.461-39 39-39s39 17.461 39 39-17.461 39-39 39-39-17.461-39-39zM197 31c0-9.389 7.611-17 17-17h83c9.389 0 17 7.611 17 17v13c0 9.389-7.611 17-17 17h-83c-9.389 0-17-7.611-17-17V31zm148.971 82.726a6.668 6.668 0 00-9.429.002l-51.816 51.837a6.668 6.668 0 00.002 9.429l51.837 51.815a6.666 6.666 0 009.429-.002l51.815-51.836a6.666 6.666 0 00-.002-9.429l-51.836-51.816z" fill="url(#paint0_radial_2_324)"/></g><path d="M75.003 115V70.85c0-18.408 14.921-33.332 33.33-33.336l64.586-.013" stroke="#5452F6" stroke-width="1.667" stroke-linecap="round" stroke-linejoin="round"/><path d="M173.886 38.136l-6.656 6.04a.833.833 0 01-1.393-.617l-.003-11.745a.834.834 0 011.376-.633l6.658 5.705c.381.326.39.913.018 1.25z" fill="#5452F6"/><circle r="4.584" transform="matrix(1 -.0002 -.0002 -1 74.585 114.585)" fill="#5452F6"/><path d="M36.944 164.931V178h2.969v-5.19h5.713v-2.726h-5.713v-2.427h6.796v-2.726h-9.765zM50.737 178v-9.708h-2.8V178h2.8zm-2.651-10.885c.336.318.746.486 1.25.486.505 0 .915-.168 1.233-.486.336-.317.504-.728.504-1.232s-.168-.915-.504-1.232c-.318-.317-.728-.485-1.233-.485a1.75 1.75 0 00-1.25.485c-.318.317-.486.728-.486 1.232s.168.915.486 1.232zm7.027 1.177h-2.8V178h2.8v-5.228c0-1.138.84-1.997 1.96-1.997.41 0 .747.093 1.008.261v-2.987c-1.326 0-2.315.411-2.968 1.251v-1.008zm11.453 2.408c-.243-1.662-1.625-2.651-3.884-2.651-2.37 0-3.94.971-3.94 3.118 0 1.437.748 2.296 2.559 2.8l1.773.523c.654.187.971.429.971.747 0 .448-.523.709-1.27.709-.914 0-1.474-.317-1.661-.971l-2.576.355c.28 1.849 1.736 2.913 4.182 2.913 2.408 0 3.995-1.083 3.995-3.118 0-1.475-.803-2.371-2.763-2.987l-1.736-.56c-.505-.187-.766-.411-.766-.654 0-.429.373-.635 1.101-.635.803 0 1.289.28 1.457.822l2.558-.411zm.736.019h1.326v4.182c0 .877.317 1.624.97 2.222.654.578 1.476.877 2.428.877h1.606v-2.614h-1.14c-.615 0-1.064-.429-1.064-1.027v-3.64h2.204v-2.427h-2.204v-1.886h-2.8v1.886h-1.326v2.427zm21.42-2.969c-.242-.877-.784-1.605-1.661-2.184-.86-.579-1.886-.878-3.062-.878-1.326 0-2.409.374-3.249 1.12-.821.729-1.232 1.699-1.232 2.894 0 .766.243 1.438.523 1.905.28.466.933.915 1.325 1.195.206.13.504.261.896.429l.915.336c.224.056.56.168.99.299l.186.056c.747.242 1.195.392 1.625.765.224.187.336.392.336.635 0 .691-.859 1.195-1.923 1.195-1.176 0-2.073-.579-2.278-1.326l-2.969.71c.28.989.878 1.792 1.83 2.408.952.616 2.091.934 3.417.934 1.437 0 2.614-.374 3.528-1.139.915-.766 1.363-1.774 1.363-3.043-.074-1.606-.71-2.521-1.792-3.1-.747-.448-1.158-.578-1.96-.821a60.05 60.05 0 01-1.96-.616c-.729-.299-1.084-.654-1.084-1.046 0-.616.672-1.064 1.569-1.064.877 0 1.568.448 1.736 1.027l2.931-.691zm1.025 2.969h1.325v4.182c0 .877.317 1.624.971 2.222.653.578 1.475.877 2.427.877h1.606v-2.614h-1.14c-.615 0-1.063-.429-1.063-1.027v-3.64h2.203v-2.427h-2.203v-1.886h-2.8v1.886h-1.326v2.427zm17.384 3.435c.075-.317.112-.653.112-1.008 0-1.438-.485-2.651-1.475-3.622-.989-.99-2.203-1.475-3.659-1.475-1.475 0-2.688.485-3.678 1.475-.99.971-1.475 2.184-1.475 3.622 0 1.456.504 2.67 1.513 3.64 1.008.971 2.277 1.457 3.79 1.457 2.072 0 3.771-1.008 4.648-2.633l-2.707-.616c-.485.579-1.12.859-1.923.859-1.139 0-2.053-.672-2.37-1.699h7.224zm-7.206-2.072c.317-.99 1.195-1.643 2.184-1.643 1.046 0 1.923.653 2.278 1.643h-4.462zm11.252 10.119v-4.854c.803.597 1.681.896 2.67.896 1.307 0 2.408-.486 3.286-1.457.877-.989 1.326-2.203 1.326-3.64 0-1.456-.449-2.67-1.326-3.641-.878-.971-1.979-1.456-3.286-1.456-1.008 0-1.904.299-2.67.896v-.653h-2.8v13.909h2.8zm2.203-11.389c1.195 0 2.147 1.008 2.147 2.352 0 .654-.205 1.195-.634 1.643a1.97 1.97 0 01-1.513.673c-1.213 0-2.165-1.027-2.165-2.316 0-1.344.952-2.352 2.165-2.352zM222.112 32.785l-1.157.338c-.078-.347-.303-.637-.676-.871-.364-.243-.793-.364-1.287-.364-.546 0-.996.134-1.352.403-.355.26-.533.59-.533.988 0 .433.243.771.728 1.014.382.182.967.373 1.755.572.642.165 1.14.334 1.495.507.832.39 1.27 1.07 1.313 2.041 0 .815-.312 1.473-.936 1.976-.606.503-1.395.754-2.366.754-.875 0-1.62-.204-2.236-.611-.615-.399-1.005-.919-1.17-1.56l1.17-.351c.07.399.312.732.728 1.001.425.26.928.39 1.508.39.607 0 1.114-.139 1.521-.416.408-.286.611-.65.611-1.092 0-.45-.216-.789-.65-1.014-.381-.2-.819-.36-1.313-.481l-.546-.143-.507-.156-.533-.182a77.94 77.94 0 00-.117-.039 1.013 1.013 0 00-.169-.078l-.182-.091c-.216-.104-.472-.29-.767-.559-.294-.295-.468-.763-.52-1.404 0-.771.286-1.395.858-1.872.581-.485 1.313-.728 2.197-.728.798 0 1.478.19 2.041.572.572.373.936.858 1.092 1.456zm8.389 4.212h-5.811c.078.607.347 1.114.806 1.521.451.399 1.006.598 1.664.598.858 0 1.526-.325 2.002-.975l1.066.338c-.312.52-.741.927-1.287 1.222a3.641 3.641 0 01-1.781.442c-1.022 0-1.88-.334-2.574-1.001-.684-.676-1.027-1.517-1.027-2.522s.334-1.842 1.001-2.509c.668-.676 1.495-1.014 2.483-1.014.997 0 1.825.338 2.483 1.014.668.667 1.001 1.504 1.001 2.509 0 .026-.008.152-.026.377zm-5.798-.884h4.693a2.412 2.412 0 00-.819-1.443c-.433-.373-.953-.559-1.56-.559a2.23 2.23 0 00-1.521.559 2.42 2.42 0 00-.793 1.443zm13.614-.975l-1.092.325a2.234 2.234 0 00-.871-.923 2.323 2.323 0 00-1.261-.351c-.685 0-1.252.234-1.703.702-.459.46-.689 1.036-.689 1.729 0 .685.23 1.265.689 1.742.459.46 1.027.689 1.703.689a2.39 2.39 0 001.261-.338 2.32 2.32 0 00.871-.936l1.092.325a3.273 3.273 0 01-1.287 1.495 3.532 3.532 0 01-1.937.546c-.997 0-1.837-.334-2.522-1.001-.667-.685-1.001-1.525-1.001-2.522 0-1.005.334-1.842 1.001-2.509.676-.676 1.517-1.014 2.522-1.014.719 0 1.365.182 1.937.546.581.364 1.01.862 1.287 1.495zm2.036 4.004c-.667-.685-1.001-1.525-1.001-2.522 0-1.005.334-1.842 1.001-2.509.676-.676 1.517-1.014 2.522-1.014 1.006 0 1.846.338 2.522 1.014.676.667 1.014 1.504 1.014 2.509s-.338 1.846-1.014 2.522c-.684.667-1.525 1.001-2.522 1.001-.996 0-1.837-.334-2.522-1.001zm2.522-.091c.685 0 1.257-.23 1.716-.689.46-.477.689-1.057.689-1.742 0-.693-.229-1.27-.689-1.729-.459-.468-1.031-.702-1.716-.702-.684 0-1.252.234-1.703.702-.459.46-.689 1.036-.689 1.729 0 .685.23 1.265.689 1.742.46.46 1.027.689 1.703.689zm5.029.949v-6.76h1.092v1.131c.538-.85 1.339-1.274 2.405-1.274.78 0 1.426.256 1.937.767.52.503.78 1.144.78 1.924V40h-1.092v-3.926c0-.546-.186-1.005-.559-1.378-.364-.373-.819-.559-1.365-.559-.589 0-1.087.19-1.495.572a1.835 1.835 0 00-.611 1.391V40h-1.092zm11.014-6.903c1.014 0 1.837.368 2.47 1.105V30.25h1.092V40h-1.092v-.962c-.633.737-1.456 1.105-2.47 1.105-.945 0-1.738-.334-2.379-1.001-.633-.667-.949-1.508-.949-2.522 0-1.014.316-1.85.949-2.509.632-.676 1.425-1.014 2.379-1.014zm.117 1.092c-.65 0-1.201.234-1.651.702-.442.46-.663 1.036-.663 1.729 0 .693.221 1.274.663 1.742a2.25 2.25 0 001.651.689c.658 0 1.209-.23 1.651-.689.45-.46.676-1.04.676-1.742s-.226-1.278-.676-1.729c-.442-.468-.993-.702-1.651-.702zm15.014-1.404l-1.157.338c-.078-.347-.303-.637-.676-.871-.364-.243-.793-.364-1.287-.364-.546 0-.997.134-1.352.403-.355.26-.533.59-.533.988 0 .433.243.771.728 1.014.381.182.966.373 1.755.572.641.165 1.14.334 1.495.507.832.39 1.27 1.07 1.313 2.041 0 .815-.312 1.473-.936 1.976-.607.503-1.395.754-2.366.754-.875 0-1.621-.204-2.236-.611-.615-.399-1.005-.919-1.17-1.56l1.17-.351c.069.399.312.732.728 1.001.425.26.927.39 1.508.39.607 0 1.114-.139 1.521-.416.407-.286.611-.65.611-1.092 0-.45-.217-.789-.65-1.014-.381-.2-.819-.36-1.313-.481l-.546-.143-.507-.156-.533-.182a77.94 77.94 0 00-.117-.039 1.052 1.052 0 00-.169-.078l-.182-.091c-.217-.104-.472-.29-.767-.559-.295-.295-.468-.763-.52-1.404 0-.771.286-1.395.858-1.872.581-.485 1.313-.728 2.197-.728.797 0 1.478.19 2.041.572.572.373.936.858 1.092 1.456zm1.07 1.417v-.962h1.092v-1.352h1.092v1.352h1.885v.962h-1.885v3.679c0 .303.091.559.273.767.19.2.424.299.702.299h.91V40h-.988c-.564 0-1.036-.19-1.417-.572-.382-.381-.572-.854-.572-1.417v-3.809h-1.092zm11.978 2.795h-5.811c.078.607.347 1.114.806 1.521.451.399 1.005.598 1.664.598.858 0 1.525-.325 2.002-.975l1.066.338c-.312.52-.741.927-1.287 1.222a3.641 3.641 0 01-1.781.442c-1.023 0-1.881-.334-2.574-1.001-.685-.676-1.027-1.517-1.027-2.522s.334-1.842 1.001-2.509c.667-.676 1.495-1.014 2.483-1.014.997 0 1.824.338 2.483 1.014.667.667 1.001 1.504 1.001 2.509 0 .026-.009.152-.026.377zm-5.798-.884h4.693a2.412 2.412 0 00-.819-1.443c-.433-.373-.953-.559-1.56-.559a2.23 2.23 0 00-1.521.559c-.425.373-.689.854-.793 1.443zm8.31 6.812h-1.092V33.24h1.092v.962c.632-.737 1.451-1.105 2.457-1.105.953 0 1.746.338 2.379 1.014.641.667.962 1.504.962 2.509 0 .997-.321 1.837-.962 2.522-.642.667-1.435 1.001-2.379 1.001-1.006 0-1.825-.368-2.457-1.105v3.887zm2.34-8.736c-.65 0-1.201.234-1.651.702-.442.46-.663 1.036-.663 1.729 0 .693.221 1.274.663 1.742a2.25 2.25 0 001.651.689c.658 0 1.209-.23 1.651-.689.45-.46.676-1.04.676-1.742s-.226-1.278-.676-1.729c-.442-.468-.993-.702-1.651-.702zm29.155 131.803h-3.406V164.9h7.982v1.092h-3.406V174h-1.17v-8.008zm5.901 4.186V174h-1.092v-6.76h1.092v1.144c.511-.858 1.313-1.287 2.405-1.287h.182v1.209a1.367 1.367 0 00-.481-.078c-.598 0-1.097.186-1.495.559a1.831 1.831 0 00-.611 1.391zm6.442-3.081c1.014 0 1.838.368 2.47 1.105v-.962h1.092V174h-1.092v-.962c-.632.737-1.456 1.105-2.47 1.105-.944 0-1.737-.334-2.379-1.001-.632-.667-.949-1.508-.949-2.522 0-1.014.317-1.85.949-2.509.633-.676 1.426-1.014 2.379-1.014zm.117 1.092c-.65 0-1.2.234-1.651.702-.442.459-.663 1.036-.663 1.729 0 .693.221 1.274.663 1.742.46.459 1.01.689 1.651.689.659 0 1.209-.23 1.651-.689.451-.459.676-1.04.676-1.742s-.225-1.278-.676-1.729c-.442-.468-.992-.702-1.651-.702zm8.262-1.092c1.014 0 1.838.368 2.47 1.105v-3.952h1.092V174h-1.092v-.962c-.632.737-1.456 1.105-2.47 1.105-.944 0-1.737-.334-2.379-1.001-.632-.667-.949-1.508-.949-2.522 0-1.014.317-1.85.949-2.509.633-.676 1.426-1.014 2.379-1.014zm.117 1.092c-.65 0-1.2.234-1.651.702-.442.459-.663 1.036-.663 1.729 0 .693.221 1.274.663 1.742.46.459 1.01.689 1.651.689.659 0 1.209-.23 1.651-.689.451-.459.676-1.04.676-1.742s-.225-1.278-.676-1.729c-.442-.468-.992-.702-1.651-.702zM348.32 174h-1.092v-6.76h1.092V174zm-1.092-7.865a.768.768 0 01-.208-.546c0-.217.07-.394.208-.533a.745.745 0 01.546-.221c.217 0 .399.074.546.221a.697.697 0 01.221.533.738.738 0 01-.221.546.764.764 0 01-.546.208.767.767 0 01-.546-.208zm2.933 7.865v-6.76h1.092v1.131c.537-.849 1.339-1.274 2.405-1.274.78 0 1.425.256 1.937.767.52.503.78 1.144.78 1.924V174h-1.092v-3.926c0-.546-.187-1.005-.559-1.378-.364-.373-.819-.559-1.365-.559-.59 0-1.088.191-1.495.572a1.831 1.831 0 00-.611 1.391v3.9h-1.092zm11.013.143c-.945 0-1.738-.334-2.379-1.001-.633-.667-.949-1.508-.949-2.522 0-1.014.316-1.85.949-2.509.633-.676 1.426-1.014 2.379-1.014 1.014 0 1.837.368 2.47 1.105v-.962h1.092v6.474c0 .962-.329 1.759-.988 2.392-.667.641-1.478.962-2.431.962a3.712 3.712 0 01-1.859-.494c-.563-.329-.975-.745-1.235-1.248l1.092-.351c.182.295.451.533.806.715.364.191.75.286 1.157.286.667 0 1.231-.217 1.69-.65.459-.433.685-.971.676-1.612v-.676c-.633.737-1.456 1.105-2.47 1.105zm.117-5.954c-.65 0-1.2.234-1.651.702-.442.459-.663 1.036-.663 1.729 0 .693.221 1.274.663 1.742.459.459 1.01.689 1.651.689.659 0 1.209-.23 1.651-.689.451-.459.676-1.04.676-1.742s-.225-1.278-.676-1.729c-.442-.468-.992-.702-1.651-.702zM512.155 34.992h-3.406V33.9h7.982v1.092h-3.406V43h-1.17v-8.008zm5.85 8.008v-9.75h1.092v4.121c.537-.85 1.343-1.274 2.418-1.274.78 0 1.434.256 1.963.767.52.503.78 1.144.78 1.924V43h-1.092v-3.926c0-.546-.186-1.005-.559-1.378-.373-.373-.836-.559-1.391-.559-.598 0-1.101.19-1.508.572a1.835 1.835 0 00-.611 1.391V43h-1.092zm9.166 0h-1.092v-6.76h1.092V43zm-1.092-7.865a.77.77 0 01-.208-.546c0-.217.07-.394.208-.533a.744.744 0 01.546-.221.74.74 0 01.546.221.697.697 0 01.221.533.74.74 0 01-.221.546.765.765 0 01-.546.208.768.768 0 01-.546-.208zm4.025 4.043V43h-1.092v-6.76h1.092v1.144c.511-.858 1.313-1.287 2.405-1.287h.182v1.209a1.367 1.367 0 00-.481-.078c-.598 0-1.096.186-1.495.559a1.835 1.835 0 00-.611 1.391zm6.442-3.081c1.014 0 1.838.368 2.47 1.105V33.25h1.092V43h-1.092v-.962c-.632.737-1.456 1.105-2.47 1.105-.944 0-1.737-.334-2.379-1.001-.632-.667-.949-1.508-.949-2.522 0-1.014.317-1.85.949-2.509.633-.676 1.426-1.014 2.379-1.014zm.117 1.092c-.65 0-1.2.234-1.651.702-.442.46-.663 1.036-.663 1.729 0 .693.221 1.274.663 1.742.46.46 1.01.689 1.651.689.659 0 1.209-.23 1.651-.689.451-.46.676-1.04.676-1.742s-.225-1.278-.676-1.729c-.442-.468-.992-.702-1.651-.702zm15.015-1.404l-1.157.338c-.078-.347-.304-.637-.676-.871-.364-.243-.793-.364-1.287-.364-.546 0-.997.134-1.352.403-.356.26-.533.59-.533.988 0 .433.242.771.728 1.014.381.182.966.373 1.755.572.641.165 1.139.334 1.495.507.832.39 1.269 1.07 1.313 2.041 0 .815-.312 1.473-.936 1.976-.607.503-1.396.754-2.366.754-.876 0-1.621-.204-2.236-.611-.616-.399-1.006-.919-1.17-1.56l1.17-.351c.069.399.312.732.728 1.001.424.26.927.39 1.508.39.606 0 1.113-.139 1.521-.416.407-.286.611-.65.611-1.092 0-.45-.217-.789-.65-1.014-.382-.2-.819-.36-1.313-.481l-.546-.143-.507-.156-.533-.182a77.94 77.94 0 00-.117-.039 1.095 1.095 0 00-.169-.078l-.182-.091c-.217-.104-.473-.29-.767-.559-.295-.295-.468-.763-.52-1.404 0-.771.286-1.395.858-1.872.58-.485 1.313-.728 2.197-.728.797 0 1.477.19 2.041.572.572.373.936.858 1.092 1.456zm1.07 1.417v-.962h1.092v-1.352h1.092v1.352h1.885v.962h-1.885v3.679c0 .303.091.559.273.767.19.2.424.299.702.299h.91V43h-.988c-.564 0-1.036-.19-1.417-.572-.382-.381-.572-.854-.572-1.417v-3.809h-1.092zm11.978 2.795h-5.811c.078.607.347 1.114.806 1.521.451.399 1.005.598 1.664.598.858 0 1.525-.325 2.002-.975l1.066.338c-.312.52-.741.927-1.287 1.222a3.641 3.641 0 01-1.781.442c-1.023 0-1.881-.334-2.574-1.001-.685-.676-1.027-1.517-1.027-2.522s.334-1.842 1.001-2.509c.667-.676 1.495-1.014 2.483-1.014.997 0 1.824.338 2.483 1.014.667.667 1.001 1.504 1.001 2.509 0 .026-.009.152-.026.377zm-5.798-.884h4.693a2.412 2.412 0 00-.819-1.443c-.433-.373-.953-.559-1.56-.559a2.23 2.23 0 00-1.521.559c-.425.373-.689.854-.793 1.443zm8.31 6.812h-1.092V36.24h1.092v.962c.632-.737 1.451-1.105 2.457-1.105.953 0 1.746.338 2.379 1.014.641.667.962 1.504.962 2.509 0 .997-.321 1.837-.962 2.522-.642.667-1.435 1.001-2.379 1.001-1.006 0-1.825-.368-2.457-1.105v3.887zm2.34-8.736c-.65 0-1.201.234-1.651.702-.442.46-.663 1.036-.663 1.729 0 .693.221 1.274.663 1.742a2.25 2.25 0 001.651.689c.658 0 1.209-.23 1.651-.689.45-.46.676-1.04.676-1.742s-.226-1.278-.676-1.729c-.442-.468-.993-.702-1.651-.702zM220.889 388.7h4.536v.756h-3.726v1.98h3.267v.756h-3.267v2.052h3.771V395h-4.581v-6.3zm7.491 1.521c.702 0 1.272.255 1.71.765v-.666h.756V395h-.756v-.666c-.438.51-1.008.765-1.71.765a2.193 2.193 0 01-1.647-.693c-.438-.462-.657-1.044-.657-1.746s.219-1.281.657-1.737c.438-.468.987-.702 1.647-.702zm.081.756c-.45 0-.831.162-1.143.486-.306.318-.459.717-.459 1.197 0 .48.153.882.459 1.206a1.56 1.56 0 001.143.477c.456 0 .837-.159 1.143-.477.312-.318.468-.72.468-1.206s-.156-.885-.468-1.197a1.508 1.508 0 00-1.143-.486zm4.414 1.377V395h-.756v-4.68h.756v.792c.354-.594.909-.891 1.665-.891h.126v.837a.945.945 0 00-.333-.054c-.414 0-.759.129-1.035.387a1.27 1.27 0 00-.423.963zm2.619 2.646v-4.68h.756v.783c.372-.588.927-.882 1.665-.882.54 0 .987.177 1.341.531.36.348.54.792.54 1.332V395h-.756v-2.718c0-.378-.129-.696-.387-.954a1.267 1.267 0 00-.945-.387c-.408 0-.753.132-1.035.396a1.27 1.27 0 00-.423.963v2.7h-.756zm6.32 0h-.756v-4.68h.756V395zm-.756-5.445a.53.53 0 01-.144-.378.5.5 0 01.144-.369.514.514 0 01.378-.153c.15 0 .276.051.378.153a.484.484 0 01.153.369c0 .15-.051.276-.153.378a.53.53 0 01-.378.144.53.53 0 01-.378-.144zm2.03 5.445v-4.68h.756v.783c.372-.588.927-.882 1.665-.882.54 0 .987.177 1.341.531.36.348.54.792.54 1.332V395h-.756v-2.718c0-.378-.129-.696-.387-.954a1.267 1.267 0 00-.945-.387c-.408 0-.753.132-1.035.396a1.27 1.27 0 00-.423.963v2.7h-.756zm7.625.099a2.193 2.193 0 01-1.647-.693c-.438-.462-.657-1.044-.657-1.746s.219-1.281.657-1.737c.438-.468.987-.702 1.647-.702.702 0 1.272.255 1.71.765v-.666h.756v4.482c0 .666-.228 1.218-.684 1.656a2.34 2.34 0 01-1.683.666c-.456 0-.885-.114-1.287-.342-.39-.228-.675-.516-.855-.864l.756-.243c.126.204.312.369.558.495.252.132.519.198.801.198.462 0 .852-.15 1.17-.45.318-.3.474-.672.468-1.116v-.468c-.438.51-1.008.765-1.71.765zm.081-4.122c-.45 0-.831.162-1.143.486-.306.318-.459.717-.459 1.197 0 .48.153.882.459 1.206a1.56 1.56 0 001.143.477c.456 0 .837-.159 1.143-.477.312-.318.468-.72.468-1.206s-.156-.885-.468-1.197a1.508 1.508 0 00-1.143-.486zm191.329 1.028l-.801.234c-.054-.24-.21-.441-.468-.603a1.569 1.569 0 00-.891-.252c-.378 0-.69.093-.936.279-.246.18-.369.408-.369.684 0 .3.168.534.504.702.264.126.669.258 1.215.396.444.114.789.231 1.035.351.576.27.879.741.909 1.413 0 .564-.216 1.02-.648 1.368-.42.348-.966.522-1.638.522-.606 0-1.122-.141-1.548-.423-.426-.276-.696-.636-.81-1.08l.81-.243c.048.276.216.507.504.693.294.18.642.27 1.044.27.42 0 .771-.096 1.053-.288.282-.198.423-.45.423-.756 0-.312-.15-.546-.45-.702a4.036 4.036 0 00-.909-.333l-.378-.099-.351-.108-.369-.126-.081-.027a.729.729 0 00-.117-.054l-.126-.063a2.36 2.36 0 01-.531-.387c-.204-.204-.324-.528-.36-.972 0-.534.198-.966.594-1.296.402-.336.909-.504 1.521-.504.552 0 1.023.132 1.413.396.396.258.648.594.756 1.008zm.741.981v-.666h.756v-.936h.756v.936h1.305v.666h-1.305v2.547c0 .21.063.387.189.531a.646.646 0 00.486.207h.63V397h-.684c-.39 0-.717-.132-.981-.396a1.332 1.332 0 01-.396-.981v-2.637h-.756zm5.791-.765c.702 0 1.272.255 1.71.765v-.666h.756V397h-.756v-.666c-.438.51-1.008.765-1.71.765a2.193 2.193 0 01-1.647-.693c-.438-.462-.657-1.044-.657-1.746s.219-1.281.657-1.737c.438-.468.987-.702 1.647-.702zm.081.756c-.45 0-.831.162-1.143.486-.306.318-.459.717-.459 1.197 0 .48.153.882.459 1.206a1.56 1.56 0 001.143.477c.456 0 .837-.159 1.143-.477.312-.318.468-.72.468-1.206s-.156-.885-.468-1.197a1.508 1.508 0 00-1.143-.486zm3.658 4.023v-6.75h.756V397h-.756zm3.843 0h-.945l-2.106-2.421 1.926-2.259h.927l-1.917 2.259 2.115 2.421zm1.545 0h-.756v-4.68h.756V397zm-.756-5.445a.53.53 0 01-.144-.378.5.5 0 01.144-.369.514.514 0 01.378-.153c.15 0 .276.051.378.153a.484.484 0 01.153.369c0 .15-.051.276-.153.378a.53.53 0 01-.378.144.53.53 0 01-.378-.144zm2.03 5.445v-4.68h.756v.783c.372-.588.927-.882 1.665-.882.54 0 .987.177 1.341.531.36.348.54.792.54 1.332V397h-.756v-2.718c0-.378-.129-.696-.387-.954a1.267 1.267 0 00-.945-.387c-.408 0-.753.132-1.035.396a1.27 1.27 0 00-.423.963v2.7h-.756zm7.625.099a2.193 2.193 0 01-1.647-.693c-.438-.462-.657-1.044-.657-1.746s.219-1.281.657-1.737c.438-.468.987-.702 1.647-.702.702 0 1.272.255 1.71.765v-.666h.756v4.482c0 .666-.228 1.218-.684 1.656a2.34 2.34 0 01-1.683.666c-.456 0-.885-.114-1.287-.342-.39-.228-.675-.516-.855-.864l.756-.243c.126.204.312.369.558.495.252.132.519.198.801.198.462 0 .852-.15 1.17-.45.318-.3.474-.672.468-1.116v-.468c-.438.51-1.008.765-1.71.765zm.081-4.122c-.45 0-.831.162-1.143.486-.306.318-.459.717-.459 1.197 0 .48.153.882.459 1.206a1.56 1.56 0 001.143.477c.456 0 .837-.159 1.143-.477.312-.318.468-.72.468-1.206s-.156-.885-.468-1.197a1.508 1.508 0 00-1.143-.486z" fill="#fff"/><defs><radialGradient id="paint0_radial_2_324" cx="0" cy="0" r="1" gradientUnits="userSpaceOnUse" gradientTransform="rotate(92.3 75.362 248.814) scale(236.691 334.088)"><stop stop-color="#40539D"/><stop offset="1" stop-color="#605CFF" stop-opacity="0"/></radialGradient><filter id="filter0_b_2_324" x="-9" y="-9" width="632" height="453" filterUnits="userSpaceOnUse" color-interpolation-filters="sRGB"><feFlood flood-opacity="0" result="BackgroundImageFix"/><feGaussianBlur in="BackgroundImageFix" stdDeviation="4.5"/><feComposite in2="SourceAlpha" operator="in" result="effect1_backgroundBlur_2_324"/><feBlend in="SourceGraphic" in2="effect1_backgroundBlur_2_324" result="shape"/></filter></defs></svg>